<svg version="1.1" xmlns="http://www.w3.org/2000/svg" xmlns:xlink="http://www.w3.org/1999/xlink" width="924" height="612"><defs/><g><g><path fill="none" stroke="#000000" paint-order="fill stroke markers" d=" M 10 10 L 914 10 L 914 602 L 10 602 L 10 10" stroke-miterlimit="10" stroke-dasharray=""/></g><g><path fill="#ffffff" stroke="none" paint-order="stroke fill markers" d=" M 10 10 L 10 31 L 107.33447265625 31 L 117.83447265625 20.5 L 117.83447265625 10 L 10 10"/></g><g><path fill="none" stroke="#000000" paint-order="fill stroke markers" d=" M 10 10 L 10 31 L 107.33447265625 31 L 117.83447265625 20.5 L 117.83447265625 10 L 10 10 L 10 10" stroke-miterlimit="10" stroke-dasharray=""/></g><g><g><path fill="none" stroke="none"/><text fill="#000000" stroke="none" font-family="Arial" font-size="11px" font-style="normal" font-weight="normal" text-decoration="undefined" x="65.47607421875" y="18.5" text-anchor="middle" dominant-baseline="central" transform="matrix(1 0 0 1 2 2)">Authentication</text></g></g><g><g><path fill="none" stroke="none"/><text fill="#000000" stroke="none" font-family="Arial" font-size="11px" font-style="normal" font-weight="bold" text-decoration="undefined" x="18.808837890625" y="18.5" text-anchor="middle" dominant-baseline="central" transform="matrix(1 0 0 1 2 2)">sd</text></g></g><g><rect fill="#C0C0C0" stroke="none" x="108" y="47" width="70.12841796875" height="40" transform="matrix(1 0 0 1 2 2)" fill-opacity="0.2"/></g><g><rect fill="#ffffff" stroke="none" x="101" y="40" width="70.12841796875" height="40" transform="matrix(1 0 0 1 2 2)"/></g><g><path fill="none" stroke="#000000" paint-order="fill stroke markers" d=" M 103 42 L 173.12841796875 42 L 173.12841796875 82 L 103 82 L 103 42 Z Z" stroke-miterlimit="10" stroke-dasharray=""/></g><g><g><path fill="none" stroke="none"/><text fill="#000000" stroke="none" font-family="Arial" font-size="11px" font-style="normal" font-weight="bold" text-decoration="undefined" x="136.564208984375" y="52.5" text-anchor="middle" dominant-baseline="central" transform="matrix(1 0 0 1 2 2)">Mediware</text></g></g><g><path fill="none" stroke="#000000" paint-order="fill stroke markers" d=" M 138.5 83 L 138.5 490" stroke-miterlimit="10" stroke-dasharray="3"/></g><g><rect fill="#C0C0C0" stroke="none" x="570" y="47" width="98.869140625" height="40" transform="matrix(1 0 0 1 2 2)" fill-opacity="0.2"/></g><g><rect fill="#ffffff" stroke="none" x="563" y="40" width="98.869140625" height="40" transform="matrix(1 0 0 1 2 2)"/></g><g><path fill="none" stroke="#000000" paint-order="fill stroke markers" d=" M 565 42 L 663.869140625 42 L 663.869140625 82 L 565 82 L 565 42 Z Z" stroke-miterlimit="10" stroke-dasharray=""/></g><g><g><path fill="none" stroke="none"/><text fill="#000000" stroke="none" font-family="Arial" font-size="11px" font-style="normal" font-weight="bold" text-decoration="undefined" x="612.9345703125" y="52.5" text-anchor="middle" dominant-baseline="central" transform="matrix(1 0 0 1 2 2)">Oracle Finance</text></g></g><g><path fill="none" stroke="#000000" paint-order="fill stroke markers" d=" M 614.5 83 L 614.5 482" stroke-miterlimit="10" stroke-dasharray="3"/></g><g><path fill="none" stroke="#000000" paint-order="fill stroke markers" d=" M 139 117 L 607 117" stroke-miterlimit="10" stroke-dasharray=""/></g><g><path fill="#000000" stroke="none" paint-order="stroke fill markers" d=" M 596.8373251423759 121.20951775601598 L 607 117 L 596.8373251423758 112.79048224398402"/></g><g><path fill="none" stroke="#000000" paint-order="fill stroke markers" d=" M 596.8373251423759 121.20951775601598 L 607 117 L 596.8373251423758 112.79048224398402 L 596.8373251423759 121.20951775601598" stroke-miterlimit="10" stroke-dasharray=""/></g><g><rect fill="#ffffff" stroke="none" x="338" y="100" width="66.03759765625" height="11" transform="matrix(1 0 0 1 2 2)"/></g><g><g><path fill="none" stroke="none"/><text fill="#000000" stroke="none" font-family="Arial" font-size="11px" font-style="normal" font-weight="normal" text-decoration="undefined" x="371.018798828125" y="105.5" text-anchor="middle" dominant-baseline="central" transform="matrix(1 0 0 1 2 2)">1 : TDB</text></g></g><g><rect fill="#ffffff" stroke="none" x="605" y="115" width="14" height="28" transform="matrix(1 0 0 1 2 2)"/></g><g><path fill="none" stroke="#000000" paint-order="fill stroke markers" d=" M 607 117 L 621 117 L 621 145 L 607 145 L 607 117 Z Z" stroke-miterlimit="10" stroke-dasharray=""/></g><g><path fill="none" stroke="#000000" paint-order="fill stroke markers" d=" M 614 275 L 145 275" stroke-miterlimit="10" stroke-dasharray=""/></g><g><path fill="#000000" stroke="none" paint-order="stroke fill markers" d=" M 155.16267485762415 270.790482243984 L 145 275 L 155.16267485762415 279.209517756016"/></g><g><path fill="none" stroke="#000000" paint-order="fill stroke markers" d=" M 155.16267485762415 270.790482243984 L 145 275 L 155.16267485762415 279.209517756016 L 155.16267485762415 270.790482243984" stroke-miterlimit="10" stroke-dasharray=""/></g><g><rect fill="#ffffff" stroke="none" x="334" y="278" width="85.0029296875" height="11" transform="matrix(1 0 0 1 2 2)"/></g><g><g><path fill="none" stroke="none"/><text fill="#000000" stroke="none" font-family="Arial" font-size="11px" font-style="normal" font-weight="normal" text-decoration="undefined" x="376.50146484375" y="283.5" text-anchor="middle" dominant-baseline="central" transform="matrix(1 0 0 1 2 2)">2 : Authentication</text></g></g><g><rect fill="#ffffff" stroke="none" x="129" y="273" width="14" height="55" transform="matrix(1 0 0 1 2 2)"/></g><g><path fill="none" stroke="#000000" paint-order="fill stroke markers" d=" M 131 275 L 145 275 L 145 330 L 131 330 L 131 275 Z Z" stroke-miterlimit="10" stroke-dasharray=""/></g><g><path fill="none" stroke="#000000" paint-order="fill stroke markers" d=" M 145 322 L 614 322" stroke-miterlimit="10" stroke-dasharray="3"/></g><g><path fill="none" stroke="#000000" paint-order="fill stroke markers" d=" M 603.8373251423759 326.209517756016 L 614 322 L 603.8373251423758 317.790482243984" stroke-miterlimit="10" stroke-dasharray=""/></g><g><rect fill="#ffffff" stroke="none" x="344" y="305" width="66.03759765625" height="11" transform="matrix(1 0 0 1 2 2)"/></g><g><g><path fill="none" stroke="none"/><text fill="#000000" stroke="none" font-family="Arial" font-size="11px" font-style="normal" font-weight="normal" text-decoration="undefined" x="377.018798828125" y="310.5" text-anchor="middle" dominant-baseline="central" transform="matrix(1 0 0 1 2 2)">3 : Token</text></g></g></g></svg>