<svg version="1.1" xmlns="http://www.w3.org/2000/svg" xmlns:xlink="http://www.w3.org/1999/xlink" width="1164" height="1180"><defs/><g><g><path fill="none" stroke="#000000" paint-order="fill stroke markers" d=" M 10 10 L 1154 10 L 1154 1170 L 10 1170 L 10 10" stroke-miterlimit="10" stroke-dasharray=""/></g><g><path fill="#ffffff" stroke="none" paint-order="stroke fill markers" d=" M 10 10 L 10 31 L 148.28369140625 31 L 158.78369140625 20.5 L 158.78369140625 10 L 10 10"/></g><g><path fill="none" stroke="#000000" paint-order="fill stroke markers" d=" M 10 10 L 10 31 L 148.28369140625 31 L 158.78369140625 20.5 L 158.78369140625 10 L 10 10 L 10 10" stroke-miterlimit="10" stroke-dasharray=""/></g><g><g><path fill="none" stroke="none"/><text fill="#000000" stroke="none" font-family="Arial" font-size="11px" font-style="normal" font-weight="normal" text-decoration="undefined" x="85.95068359375" y="18.5" text-anchor="middle" dominant-baseline="central" transform="matrix(1 0 0 1 2 2)">Inventory  transactions</text></g></g><g><g><path fill="none" stroke="none"/><text fill="#000000" stroke="none" font-family="Arial" font-size="11px" font-style="normal" font-weight="bold" text-decoration="undefined" x="18.808837890625" y="18.5" text-anchor="middle" dominant-baseline="central" transform="matrix(1 0 0 1 2 2)">sd</text></g></g><g><rect fill="#C0C0C0" stroke="none" x="103" y="47" width="70.12841796875" height="40" transform="matrix(1 0 0 1 2 2)" fill-opacity="0.2"/></g><g><rect fill="#ffffff" stroke="none" x="96" y="40" width="70.12841796875" height="40" transform="matrix(1 0 0 1 2 2)"/></g><g><path fill="none" stroke="#000000" paint-order="fill stroke markers" d=" M 98 42 L 168.12841796875 42 L 168.12841796875 82 L 98 82 L 98 42 Z Z" stroke-miterlimit="10" stroke-dasharray=""/></g><g><g><path fill="none" stroke="none"/><text fill="#000000" stroke="none" font-family="Arial" font-size="11px" font-style="normal" font-weight="bold" text-decoration="undefined" x="131.564208984375" y="52.5" text-anchor="middle" dominant-baseline="central" transform="matrix(1 0 0 1 2 2)">Mediware</text></g></g><g><path fill="none" stroke="#000000" paint-order="fill stroke markers" d=" M 133.5 83 L 133.5 1130" stroke-miterlimit="10" stroke-dasharray="3"/></g><g><rect fill="#C0C0C0" stroke="none" x="583" y="47" width="98.869140625" height="40" transform="matrix(1 0 0 1 2 2)" fill-opacity="0.2"/></g><g><rect fill="#ffffff" stroke="none" x="576" y="40" width="98.869140625" height="40" transform="matrix(1 0 0 1 2 2)"/></g><g><path fill="none" stroke="#000000" paint-order="fill stroke markers" d=" M 578 42 L 676.869140625 42 L 676.869140625 82 L 578 82 L 578 42 Z Z" stroke-miterlimit="10" stroke-dasharray=""/></g><g><g><path fill="none" stroke="none"/><text fill="#000000" stroke="none" font-family="Arial" font-size="11px" font-style="normal" font-weight="bold" text-decoration="undefined" x="625.9345703125" y="52.5" text-anchor="middle" dominant-baseline="central" transform="matrix(1 0 0 1 2 2)">Oracle Finance</text></g></g><g><path fill="none" stroke="#000000" paint-order="fill stroke markers" d=" M 627.5 83 L 627.5 1122" stroke-miterlimit="10" stroke-dasharray="3"/></g><g><path fill="none" stroke="#000000" paint-order="fill stroke markers" d=" M 627 146 L 140 146" stroke-miterlimit="10" stroke-dasharray=""/></g><g><path fill="#000000" stroke="none" paint-order="stroke fill markers" d=" M 150.16267485762415 141.790482243984 L 140 146 L 150.16267485762415 150.209517756016"/></g><g><path fill="none" stroke="#000000" paint-order="fill stroke markers" d=" M 150.16267485762415 141.790482243984 L 140 146 L 150.16267485762415 150.209517756016 L 150.16267485762415 141.790482243984" stroke-miterlimit="10" stroke-dasharray=""/></g><g><rect fill="#ffffff" stroke="none" x="341" y="149" width="78.869140625" height="11" transform="matrix(1 0 0 1 2 2)"/></g><g><g><path fill="none" stroke="none"/><text fill="#000000" stroke="none" font-family="Arial" font-size="11px" font-style="normal" font-weight="normal" text-decoration="undefined" x="380.4345703125" y="154.5" text-anchor="middle" dominant-baseline="central" transform="matrix(1 0 0 1 2 2)">1 : Item creation</text></g></g><g><rect fill="#ffffff" stroke="none" x="124" y="144" width="14" height="48" transform="matrix(1 0 0 1 2 2)"/></g><g><path fill="none" stroke="#000000" paint-order="fill stroke markers" d=" M 126 146 L 140 146 L 140 194 L 126 194 L 126 146 Z Z" stroke-miterlimit="10" stroke-dasharray=""/></g><g><path fill="none" stroke="#000000" paint-order="fill stroke markers" d=" M 140 178 L 627 178" stroke-miterlimit="10" stroke-dasharray="3"/></g><g><path fill="none" stroke="#000000" paint-order="fill stroke markers" d=" M 616.8373251423759 182.209517756016 L 627 178 L 616.8373251423758 173.790482243984" stroke-miterlimit="10" stroke-dasharray=""/></g><g><rect fill="#ffffff" stroke="none" x="322" y="183" width="119.8291015625" height="11" transform="matrix(1 0 0 1 2 2)"/></g><g><g><path fill="none" stroke="none"/><text fill="#000000" stroke="none" font-family="Arial" font-size="11px" font-style="normal" font-weight="normal" text-decoration="undefined" x="381.91455078125" y="188.5" text-anchor="middle" dominant-baseline="central" transform="matrix(1 0 0 1 2 2)">2 : Success / Fail</text></g></g><g><path fill="none" stroke="#000000" paint-order="fill stroke markers" d=" M 134 258 L 620 258" stroke-miterlimit="10" stroke-dasharray=""/></g><g><path fill="#000000" stroke="none" paint-order="stroke fill markers" d=" M 609.8373251423759 262.209517756016 L 620 258 L 609.8373251423758 253.790482243984"/></g><g><path fill="none" stroke="#000000" paint-order="fill stroke markers" d=" M 609.8373251423759 262.209517756016 L 620 258 L 609.8373251423758 253.790482243984 L 609.8373251423759 262.209517756016" stroke-miterlimit="10" stroke-dasharray=""/></g><g><rect fill="#ffffff" stroke="none" x="334" y="240" width="82.54296875" height="11" transform="matrix(1 0 0 1 2 2)"/></g><g><g><path fill="none" stroke="none"/><text fill="#000000" stroke="none" font-family="Arial" font-size="11px" font-style="normal" font-weight="normal" text-decoration="undefined" x="375.271484375" y="245.5" text-anchor="middle" dominant-baseline="central" transform="matrix(1 0 0 1 2 2)">3 : Stock request</text></g></g><g><rect fill="#ffffff" stroke="none" x="618" y="256" width="14" height="28" transform="matrix(1 0 0 1 2 2)"/></g><g><path fill="none" stroke="#000000" paint-order="fill stroke markers" d=" M 620 258 L 634 258 L 634 286 L 620 286 L 620 258 Z Z" stroke-miterlimit="10" stroke-dasharray=""/></g><g><path fill="none" stroke="#000000" paint-order="fill stroke markers" d=" M 620 278 L 134 278" stroke-miterlimit="10" stroke-dasharray="3"/></g><g><path fill="none" stroke="#000000" paint-order="fill stroke markers" d=" M 144.16267485762415 273.790482243984 L 134 278 L 144.16267485762415 282.209517756016" stroke-miterlimit="10" stroke-dasharray=""/></g><g><rect fill="#ffffff" stroke="none" x="333" y="281" width="83.75146484375" height="11" transform="matrix(1 0 0 1 2 2)"/></g><g><g><path fill="none" stroke="none"/><text fill="#000000" stroke="none" font-family="Arial" font-size="11px" font-style="normal" font-weight="normal" text-decoration="undefined" x="374.875732421875" y="286.5" text-anchor="middle" dominant-baseline="central" transform="matrix(1 0 0 1 2 2)">4 : Success / Fail</text></g></g><g><path fill="none" stroke="#000000" paint-order="fill stroke markers" d=" M 627 362 L 140 362" stroke-miterlimit="10" stroke-dasharray=""/></g><g><path fill="#000000" stroke="none" paint-order="stroke fill markers" d=" M 150.16267485762415 357.790482243984 L 140 362 L 150.16267485762415 366.209517756016"/></g><g><path fill="none" stroke="#000000" paint-order="fill stroke markers" d=" M 150.16267485762415 357.790482243984 L 140 362 L 150.16267485762415 366.209517756016 L 150.16267485762415 357.790482243984" stroke-miterlimit="10" stroke-dasharray=""/></g><g><rect fill="#ffffff" stroke="none" x="261" y="365" width="239.6474609375" height="11" transform="matrix(1 0 0 1 2 2)"/></g><g><g><path fill="none" stroke="none"/><text fill="#000000" stroke="none" font-family="Arial" font-size="11px" font-style="normal" font-weight="normal" text-decoration="undefined" x="380.82373046875" y="370.5" text-anchor="middle" dominant-baseline="central" transform="matrix(1 0 0 1 2 2)">5 : Stock receipt (Stock transfer / order shipment)</text></g></g><g><rect fill="#ffffff" stroke="none" x="124" y="360" width="14" height="64" transform="matrix(1 0 0 1 2 2)"/></g><g><path fill="none" stroke="#000000" paint-order="fill stroke markers" d=" M 126 362 L 140 362 L 140 426 L 126 426 L 126 362 Z Z" stroke-miterlimit="10" stroke-dasharray=""/></g><g><path fill="none" stroke="#000000" paint-order="fill stroke markers" d=" M 140 410 L 627 410" stroke-miterlimit="10" stroke-dasharray="3"/></g><g><path fill="none" stroke="#000000" paint-order="fill stroke markers" d=" M 616.8373251423759 414.209517756016 L 627 410 L 616.8373251423758 405.790482243984" stroke-miterlimit="10" stroke-dasharray=""/></g><g><rect fill="#ffffff" stroke="none" x="340" y="393" width="83.75146484375" height="11" transform="matrix(1 0 0 1 2 2)"/></g><g><g><path fill="none" stroke="none"/><text fill="#000000" stroke="none" font-family="Arial" font-size="11px" font-style="normal" font-weight="normal" text-decoration="undefined" x="381.875732421875" y="398.5" text-anchor="middle" dominant-baseline="central" transform="matrix(1 0 0 1 2 2)">6 : Success / Fail</text></g></g><g><path fill="none" stroke="#000000" paint-order="fill stroke markers" d=" M 134 514 L 620 514" stroke-miterlimit="10" stroke-dasharray=""/></g><g><path fill="#000000" stroke="none" paint-order="stroke fill markers" d=" M 609.8373251423759 518.209517756016 L 620 514 L 609.8373251423758 509.790482243984"/></g><g><path fill="none" stroke="#000000" paint-order="fill stroke markers" d=" M 609.8373251423759 518.209517756016 L 620 514 L 609.8373251423758 509.790482243984 L 609.8373251423759 518.209517756016" stroke-miterlimit="10" stroke-dasharray=""/></g><g><rect fill="#ffffff" stroke="none" x="324" y="497" width="102.115234375" height="11" transform="matrix(1 0 0 1 2 2)"/></g><g><g><path fill="none" stroke="none"/><text fill="#000000" stroke="none" font-family="Arial" font-size="11px" font-style="normal" font-weight="normal" text-decoration="undefined" x="375.0576171875" y="502.5" text-anchor="middle" dominant-baseline="central" transform="matrix(1 0 0 1 2 2)">7 : Stock acceptance</text></g></g><g><rect fill="#ffffff" stroke="none" x="618" y="512" width="14" height="40" transform="matrix(1 0 0 1 2 2)"/></g><g><path fill="none" stroke="#000000" paint-order="fill stroke markers" d=" M 620 514 L 634 514 L 634 554 L 620 554 L 620 514 Z Z" stroke-miterlimit="10" stroke-dasharray=""/></g><g><path fill="none" stroke="#000000" paint-order="fill stroke markers" d=" M 620 546 L 134 546" stroke-miterlimit="10" stroke-dasharray="3"/></g><g><path fill="none" stroke="#000000" paint-order="fill stroke markers" d=" M 144.16267485762415 541.790482243984 L 134 546 L 144.16267485762415 550.209517756016" stroke-miterlimit="10" stroke-dasharray=""/></g><g><rect fill="#ffffff" stroke="none" x="333" y="549" width="83.75146484375" height="11" transform="matrix(1 0 0 1 2 2)"/></g><g><g><path fill="none" stroke="none"/><text fill="#000000" stroke="none" font-family="Arial" font-size="11px" font-style="normal" font-weight="normal" text-decoration="undefined" x="374.875732421875" y="554.5" text-anchor="middle" dominant-baseline="central" transform="matrix(1 0 0 1 2 2)">8 : Success / Fail</text></g></g><g><path fill="none" stroke="#000000" paint-order="fill stroke markers" d=" M 627 615 L 140 615" stroke-miterlimit="10" stroke-dasharray=""/></g><g><path fill="#000000" stroke="none" paint-order="stroke fill markers" d=" M 150.16267485762415 610.790482243984 L 140 615 L 150.16267485762415 619.209517756016"/></g><g><path fill="none" stroke="#000000" paint-order="fill stroke markers" d=" M 150.16267485762415 610.790482243984 L 140 615 L 150.16267485762415 619.209517756016 L 150.16267485762415 610.790482243984" stroke-miterlimit="10" stroke-dasharray=""/></g><g><rect fill="#ffffff" stroke="none" x="327" y="618" width="106.3798828125" height="11" transform="matrix(1 0 0 1 2 2)"/></g><g><g><path fill="none" stroke="none"/><text fill="#000000" stroke="none" font-family="Arial" font-size="11px" font-style="normal" font-weight="normal" text-decoration="undefined" x="380.18994140625" y="623.5" text-anchor="middle" dominant-baseline="central" transform="matrix(1 0 0 1 2 2)">9 : Stock Adjustments</text></g></g><g><rect fill="#ffffff" stroke="none" x="124" y="613" width="14" height="67" transform="matrix(1 0 0 1 2 2)"/></g><g><path fill="none" stroke="#000000" paint-order="fill stroke markers" d=" M 126 615 L 140 615 L 140 682 L 126 682 L 126 615 Z Z" stroke-miterlimit="10" stroke-dasharray=""/></g><g><path fill="none" stroke="#000000" paint-order="fill stroke markers" d=" M 140 666 L 627 666" stroke-miterlimit="10" stroke-dasharray="3"/></g><g><path fill="none" stroke="#000000" paint-order="fill stroke markers" d=" M 616.8373251423759 670.209517756016 L 627 666 L 616.8373251423758 661.790482243984" stroke-miterlimit="10" stroke-dasharray=""/></g><g><rect fill="#ffffff" stroke="none" x="337" y="649" width="89.869140625" height="11" transform="matrix(1 0 0 1 2 2)"/></g><g><g><path fill="none" stroke="none"/><text fill="#000000" stroke="none" font-family="Arial" font-size="11px" font-style="normal" font-weight="normal" text-decoration="undefined" x="381.9345703125" y="654.5" text-anchor="middle" dominant-baseline="central" transform="matrix(1 0 0 1 2 2)">10 : Success / Fail</text></g></g><g><path fill="none" stroke="#000000" paint-order="fill stroke markers" d=" M 134 747 L 620 747" stroke-miterlimit="10" stroke-dasharray=""/></g><g><path fill="#000000" stroke="none" paint-order="stroke fill markers" d=" M 609.8373251423759 751.209517756016 L 620 747 L 609.8373251423758 742.790482243984"/></g><g><path fill="none" stroke="#000000" paint-order="fill stroke markers" d=" M 609.8373251423759 751.209517756016 L 620 747 L 609.8373251423758 742.790482243984 L 609.8373251423759 751.209517756016" stroke-miterlimit="10" stroke-dasharray=""/></g><g><rect fill="#ffffff" stroke="none" x="333" y="730" width="84.17041015625" height="11" transform="matrix(1 0 0 1 2 2)"/></g><g><g><path fill="none" stroke="none"/><text fill="#000000" stroke="none" font-family="Arial" font-size="11px" font-style="normal" font-weight="normal" text-decoration="undefined" x="375.085205078125" y="735.5" text-anchor="middle" dominant-baseline="central" transform="matrix(1 0 0 1 2 2)">11 : Stock Return</text></g></g><g><rect fill="#ffffff" stroke="none" x="618" y="745" width="14" height="28" transform="matrix(1 0 0 1 2 2)"/></g><g><path fill="none" stroke="#000000" paint-order="fill stroke markers" d=" M 620 747 L 634 747 L 634 775 L 620 775 L 620 747 Z Z" stroke-miterlimit="10" stroke-dasharray=""/></g><g><path fill="none" stroke="#000000" paint-order="fill stroke markers" d=" M 620 767 L 134 767" stroke-miterlimit="10" stroke-dasharray="3"/></g><g><path fill="none" stroke="#000000" paint-order="fill stroke markers" d=" M 144.16267485762415 762.790482243984 L 134 767 L 144.16267485762415 771.209517756016" stroke-miterlimit="10" stroke-dasharray=""/></g><g><rect fill="#ffffff" stroke="none" x="338" y="776" width="72.1552734375" height="11" transform="matrix(1 0 0 1 2 2)"/></g><g><g><path fill="none" stroke="none"/><text fill="#000000" stroke="none" font-family="Arial" font-size="11px" font-style="normal" font-weight="normal" text-decoration="undefined" x="374.07763671875" y="781.5" text-anchor="middle" dominant-baseline="central" transform="matrix(1 0 0 1 2 2)">12 : TBD</text></g></g><g><path fill="none" stroke="#000000" paint-order="fill stroke markers" d=" M 134 851 L 620 851" stroke-miterlimit="10" stroke-dasharray=""/></g><g><path fill="#000000" stroke="none" paint-order="stroke fill markers" d=" M 609.8373251423759 855.209517756016 L 620 851 L 609.8373251423758 846.790482243984"/></g><g><path fill="none" stroke="#000000" paint-order="fill stroke markers" d=" M 609.8373251423759 855.209517756016 L 620 851 L 609.8373251423758 846.790482243984 L 609.8373251423759 855.209517756016" stroke-miterlimit="10" stroke-dasharray=""/></g><g><rect fill="#ffffff" stroke="none" x="321" y="834" width="108.22216796875" height="11" transform="matrix(1 0 0 1 2 2)"/></g><g><g><path fill="none" stroke="none"/><text fill="#000000" stroke="none" font-family="Arial" font-size="11px" font-style="normal" font-weight="normal" text-decoration="undefined" x="375.111083984375" y="839.5" text-anchor="middle" dominant-baseline="central" transform="matrix(1 0 0 1 2 2)">13 : Item consumption</text></g></g><g><rect fill="#ffffff" stroke="none" x="618" y="849" width="14" height="28" transform="matrix(1 0 0 1 2 2)"/></g><g><path fill="none" stroke="#000000" paint-order="fill stroke markers" d=" M 620 851 L 634 851 L 634 879 L 620 879 L 620 851 Z Z" stroke-miterlimit="10" stroke-dasharray=""/></g><g><path fill="none" stroke="#000000" paint-order="fill stroke markers" d=" M 620 871 L 134 871" stroke-miterlimit="10" stroke-dasharray="3"/></g><g><path fill="none" stroke="#000000" paint-order="fill stroke markers" d=" M 144.16267485762415 866.790482243984 L 134 871 L 144.16267485762415 875.209517756016" stroke-miterlimit="10" stroke-dasharray=""/></g><g><rect fill="#ffffff" stroke="none" x="330" y="874" width="89.869140625" height="11" transform="matrix(1 0 0 1 2 2)"/></g><g><g><path fill="none" stroke="none"/><text fill="#000000" stroke="none" font-family="Arial" font-size="11px" font-style="normal" font-weight="normal" text-decoration="undefined" x="374.9345703125" y="879.5" text-anchor="middle" dominant-baseline="central" transform="matrix(1 0 0 1 2 2)">14 : Success / Fail</text></g></g><g><path fill="none" stroke="#000000" paint-order="fill stroke markers" d=" M 134 1010 L 620 1010" stroke-miterlimit="10" stroke-dasharray=""/></g><g><path fill="#000000" stroke="none" paint-order="stroke fill markers" d=" M 609.8373251423759 1014.209517756016 L 620 1010 L 609.8373251423758 1005.790482243984"/></g><g><path fill="none" stroke="#000000" paint-order="fill stroke markers" d=" M 609.8373251423759 1014.209517756016 L 620 1010 L 609.8373251423758 1005.790482243984 L 609.8373251423759 1014.209517756016" stroke-miterlimit="10" stroke-dasharray=""/></g><g><rect fill="#ffffff" stroke="none" x="274" y="993" width="202.97900390625" height="11" transform="matrix(1 0 0 1 2 2)"/></g><g><g><path fill="none" stroke="none"/><text fill="#000000" stroke="none" font-family="Arial" font-size="11px" font-style="normal" font-weight="normal" text-decoration="undefined" x="375.489501953125" y="998.5" text-anchor="middle" dominant-baseline="central" transform="matrix(1 0 0 1 2 2)">15 : Dept transfer (Sub inventory transfer)</text></g></g><g><rect fill="#ffffff" stroke="none" x="618" y="1008" width="14" height="28" transform="matrix(1 0 0 1 2 2)"/></g><g><path fill="none" stroke="#000000" paint-order="fill stroke markers" d=" M 620 1010 L 634 1010 L 634 1038 L 620 1038 L 620 1010 Z Z" stroke-miterlimit="10" stroke-dasharray=""/></g><g><path fill="none" stroke="#000000" paint-order="fill stroke markers" d=" M 620 1030 L 134 1030" stroke-miterlimit="10" stroke-dasharray="3"/></g><g><path fill="none" stroke="#000000" paint-order="fill stroke markers" d=" M 144.16267485762415 1025.7904822439841 L 134 1030 L 144.16267485762415 1034.2095177560159" stroke-miterlimit="10" stroke-dasharray=""/></g><g><rect fill="#ffffff" stroke="none" x="330" y="1033" width="89.869140625" height="11" transform="matrix(1 0 0 1 2 2)"/></g><g><g><path fill="none" stroke="none"/><text fill="#000000" stroke="none" font-family="Arial" font-size="11px" font-style="normal" font-weight="normal" text-decoration="undefined" x="374.9345703125" y="1038.5" text-anchor="middle" dominant-baseline="central" transform="matrix(1 0 0 1 2 2)">16 : Success / Fail</text></g></g></g></svg>